<?xml version="1.0" standalone="no"?>
<!DOCTYPE svg PUBLIC "-//W3C//DTD SVG 20010904//EN"
 "http://www.w3.org/TR/2001/REC-SVG-20010904/DTD/svg10.dtd">
<svg version="1.0" xmlns="http://www.w3.org/2000/svg"
 width="209.000000pt" height="209.000000pt" viewBox="0 0 209.000000 209.000000"
 preserveAspectRatio="xMidYMid meet">
<metadata>
Created by potrace 1.11, written by Peter Selinger 2001-2013
</metadata>
<g transform="translate(0.000000,209.000000) scale(0.100000,-0.100000)"
fill="#000000" stroke="none">
<path d="M1560 1953 c-8 -3 -28 -11 -45 -19 -16 -7 -95 -40 -175 -74 -452
-191 -612 -338 -540 -497 49 -108 176 -175 450 -238 267 -62 366 -87 378 -97
6 -6 12 -8 12 -4 0 10 93 -40 118 -64 44 -42 50 -91 18 -156 -9 -16 -59 -81
-112 -144 -186 -220 -354 -439 -354 -461 0 -16 129 36 225 90 242 139 421 396
471 676 43 245 -11 516 -143 707 -18 26 -33 51 -33 56 0 4 -8 15 -17 23 -10 9
-36 36 -58 61 -40 44 -164 149 -174 147 -4 0 -13 -3 -21 -6z m-398 -525 c36
-20 78 -60 78 -75 0 -50 -185 -25 -244 34 -28 27 -26 39 8 54 27 12 129 3 158
-13z m201 -92 c54 -24 62 -33 49 -49 -16 -19 -66 -10 -97 19 -43 40 -14 57 48
30z m163 -110 c10 -8 16 -17 12 -21 -9 -9 -78 14 -78 26 0 14 44 11 66 -5z"/>
<path d="M201 1658 c-22 -35 -82 -156 -85 -170 -2 -7 -6 -20 -9 -28 -67 -172
-68 -457 -3 -635 75 -204 186 -355 351 -478 74 -55 228 -137 258 -137 8 0 17
-3 21 -7 3 -4 12 -8 19 -9 7 -1 35 -7 62 -14 106 -24 273 -32 356 -16 34 6 37
10 63 84 29 84 35 162 17 229 -13 46 -67 132 -122 191 -72 76 -86 135 -49 207
42 83 17 122 -118 186 -92 43 -95 44 -182 79 -83 32 -87 34 -194 86 -158 76
-281 184 -323 283 -20 46 -25 67 -30 124 -5 53 -12 57 -32 25z"/>
</g>
</svg>
